  <svg xmlns="http://www.w3.org/2000/svg" viewBox="0 0 238.404 205.263" height="775.797" width="901.056">
    <path fill="#fff" fill-opacity=".941" d="M0 0h238.404v205.263H0z" />
    <g fill="#4631d4" stroke="#0a1a30" stroke-width=".9" stroke-linecap="round" stroke-linejoin="round">
      <path
        d="M110.921 36.017a46.869 46.869 0 00-18.713 18.658 46.869 46.869 0 0135.071 24.077 46.869 46.869 0 01-.067 44.909 46.869 46.869 0 0028.495-5.297 46.869 46.869 0 0018.78-63.567 46.869 46.869 0 00-63.566-18.78z" />
      <path
        d="M61.317 141.038a46.869 46.869 0 0025.47 7.043 46.869 46.869 0 013.591-42.39 46.869 46.869 0 0139.07-22.143 46.869 46.869 0 00-18.691-22.151 46.869 46.869 0 00-64.54 15.101 46.869 46.869 0 0015.1 64.54z" />
      <path
        d="M177.104 131.566a46.869 46.869 0 00-6.701-25.562 46.869 46.869 0 01-38.459 18.185 46.869 46.869 0 01-38.77-22.665 46.869 46.869 0 00-9.768 27.288 46.869 46.869 0 0045.473 48.226 46.869 46.869 0 0048.225-45.472z" />
    </g>
    <g id="0" font-weight="700" font-size="10.583" font-family="sans-serif" stroke-width=".265">
      <text
        style="line-height:1.25;-inkscape-font-specification:'sans-serif Bold'" x="87.986" y="123.926"
        transform="translate(17.105 -16.57)">
        <tspan x="87.986" y="123.926" style="-inkscape-font-specification:'Subjectivity Bold'">MOI
        </tspan>
      </text>
    </g>
    <g id="1" font-weight="700" font-size="10.583" font-family="sans-serif" stroke-width=".265">
      <text
        style="line-height:1.25;-inkscape-font-specification:'sans-serif Bold'" x="87.986" y="123.926"
        transform="translate(17.105 -16.57)">
        <tspan x="87.986" y="123.926" style="-inkscape-font-specification:'Subjectivity Bold'">MOI
        </tspan>
      </text><text y="107.386" x="28.555" style="line-height:1.25;-inkscape-font-specification:'sans-serif Bold'"
        fill="#f0f0f0" transform="translate(17.105 -16.57)">
        <tspan style="-inkscape-font-specification:'Subjectivity Bold'" y="107.386" x="28.555">
          Cuisine</tspan>
      </text><text style="line-height:1.25;-inkscape-font-specification:'sans-serif Bold'" x="100.582" y="80.226"
        fill="#f0f0f0" transform="translate(17.105 -16.57)">
        <tspan x="100.582" y="80.226" style="-inkscape-font-specification:'Subjectivity Bold'">
          Lecture</tspan>
      </text><text y="157.234" x="74.922" style="line-height:1.25;-inkscape-font-specification:'sans-serif Bold'"
        fill="#f0f0f0" transform="translate(17.105 -16.57)">
        <tspan style="-inkscape-font-specification:'Subjectivity Bold'" y="157.234" x="74.922">Découverte
        </tspan>
      </text>
    </g>
    <g id="2" font-weight="700" font-size="10.583" font-family="sans-serif" stroke-width=".265"><text y="123.926" x="87.986"
        style="line-height:1.25;-inkscape-font-specification:'sans-serif Bold'" transform="translate(17.105 -16.57)">
        <tspan x="87.986" y="123.926" style="-inkscape-font-specification:'Subjectivity Bold'">MOI
        </tspan>
      </text><text style="line-height:1.25;-inkscape-font-specification:'sans-serif Bold'" x="31.73" y="107.386"
        fill="#f0f0f0" transform="translate(17.105 -16.57)">
        <tspan x="30.142" y="107.386" style="-inkscape-font-specification:'Subjectivity Bold'">De Buyer
        </tspan>
      </text><text y="80.226" x="100.052" style="line-height:1.25;-inkscape-font-specification:'sans-serif Bold'"
        fill="#f0f0f0" transform="translate(17.105 -16.57)">
        <tspan style="-inkscape-font-specification:'Subjectivity Bold'" y="80.226" x="100.052">Livres
        </tspan>
      </text><text style="line-height:1.25;-inkscape-font-specification:'sans-serif Bold'" x="74.922" y="157.234"
        fill="#f0f0f0" transform="translate(17.105 -16.57)">
        <tspan x="74.922" y="157.234" style="-inkscape-font-specification:'Subjectivity Bold'">Vélos des 90’s
        </tspan>
      </text></g>
    <g id="3" font-weight="700" font-size="10.583" font-family="sans-serif" stroke-width=".265"><text y="123.926" x="88.515"
        style="line-height:1.25;-inkscape-font-specification:'sans-serif Bold'" transform="translate(17.105 -16.57)">
        <tspan x="87.986" y="123.926" style="-inkscape-font-specification:'Subjectivity Bold'">MOI
        </tspan>
      </text><text style="line-height:1.25;-inkscape-font-specification:'sans-serif Bold'" x="29.084" y="107.386"
        fill="#f0f0f0" transform="translate(17.105 -16.57)">
        <tspan x="29.084" y="107.386" style="-inkscape-font-specification:'Subjectivity Bold'" font-size="8.467"
         >Low-tech</tspan>
      </text><text y="79.696" x="101.111" style="line-height:1.25;-inkscape-font-specification:'sans-serif Bold'"
        fill="#f0f0f0" transform="translate(17.105 -16.57)">
        <tspan style="-inkscape-font-specification:'Subjectivity Bold'" y="79.696" x="101.111" font-size="8.467"
         >Intégration</tspan>
      </text><text style="line-height:1.25;-inkscape-font-specification:'sans-serif Bold'" x="75.451" y="156.705"
        fill="#f0f0f0" transform="translate(17.105 -16.57)">
        <tspan x="75.451" y="156.705" style="-inkscape-font-specification:'Subjectivity Bold'" font-size="8.467"
         >Accessibilité</tspan>
      </text>
    </g>
    <g id="4" font-weight="700" font-family="sans-serif" stroke-width=".265"><text
        style="line-height:1.25;-inkscape-font-specification:'sans-serif Bold'" x="88.515" y="123.926" font-size="10.583"
        transform="translate(17.105 -16.57)">
        <tspan x="87.986" y="123.926" style="-inkscape-font-specification:'Subjectivity Bold'">MOI
        </tspan>
      </text><text y="107.386" x="30.142" style="line-height:1.25;-inkscape-font-specification:'sans-serif Bold'"
        font-size="12.7" fill="#f0f0f0" transform="translate(17.105 -16.57)">
        <tspan style="-inkscape-font-specification:'Subjectivity Bold'" y="107.386" x="30.142">GSS
        </tspan>
      </text><text style="line-height:1.25;-inkscape-font-specification:'sans-serif Bold'" x="100.582" y="79.696"
        font-size="9.878" fill="#f0f0f0" transform="translate(17.105 -16.57)">
        <tspan x="100.582" y="79.696" style="-inkscape-font-specification:'Subjectivity Bold'">
          HTML/CSS</tspan>
      </text><text y="157.234" x="74.922" style="line-height:1.25;-inkscape-font-specification:'sans-serif Bold'"
        font-size="12.7" fill="#f0f0f0" transform="translate(17.105 -16.57)">
        <tspan style="-inkscape-font-specification:'Subjectivity Bold'" y="157.234" x="74.922">RGAA
        </tspan>
      </text>
    </g>
    <g id="5" font-weight="700" font-family="sans-serif" stroke-width=".265"><text y="124.456" x="82.165"
        style="line-height:1.25;-inkscape-font-specification:'sans-serif Bold'" font-size="10.583"
        transform="translate(17.105 -16.57)">
        <tspan style="-inkscape-font-specification:'Subjectivity Bold'" y="123.926" x="82.165">RGAA
        </tspan>
      </text><text style="line-height:1.25;-inkscape-font-specification:'sans-serif Bold'" x="29.084" y="106.857"
        font-size="8.467" fill="#f0f0f0" transform="translate(17.105 -16.57)">
        <tspan x="29.084" y="106.857" style="-inkscape-font-specification:'Subjectivity Bold'">
          Conformité</tspan>
      </text><text y="80.226" x="100.582" style="line-height:1.25;-inkscape-font-specification:'sans-serif Bold'"
        font-size="8.467" fill="#f0f0f0" transform="translate(17.105 -16.57)">
        <tspan style="-inkscape-font-specification:'Subjectivity Bold'" y="80.226" x="100.582">
          Publication</tspan>
      </text><text style="line-height:1.25;-inkscape-font-specification:'sans-serif Bold'" x="77.039" y="156.705"
        font-size="8.467" fill="#f0f0f0" transform="translate(17.105 -16.57)">
        <tspan x="77.039" y="156.705" style="-inkscape-font-specification:'Subjectivity Bold'">
          Transparence</tspan>
      </text></g>
    <g id="6" font-weight="700" font-family="sans-serif" stroke-width=".265"><text
        style="line-height:1.25;-inkscape-font-specification:'sans-serif Bold'" x="82.165" y="123.926" font-size="10.583"
        transform="translate(17.105 -16.57)">
        <tspan x="82.165" y="123.926" style="-inkscape-font-specification:'Subjectivity Bold'">RGAA
        </tspan>
      </text><text y="107.386" x="29.084" style="line-height:1.25;-inkscape-font-specification:'sans-serif Bold'"
        font-size="8.467" fill="#f0f0f0" transform="translate(17.105 -16.57)">
        <tspan style="-inkscape-font-specification:'Subjectivity Bold'" y="107.386" x="29.084">Audit
          RGAA</tspan>
      </text><text style="line-height:1.25;-inkscape-font-specification:'sans-serif Bold'" x="100.582" y="80.226"
        font-size="8.467" fill="#f0f0f0" transform="translate(17.105 -16.57)">
        <tspan x="100.582" y="80.226" style="-inkscape-font-specification:'Subjectivity Bold'">
          Déclaration</tspan>
      </text><text y="156.705" x="77.039" style="line-height:1.25;-inkscape-font-specification:'sans-serif Bold'"
        font-size="8.467" fill="#f0f0f0" transform="translate(17.105 -16.57)">
        <tspan style="-inkscape-font-specification:'Subjectivity Bold'" y="156.705" x="77.039">Open
          Data</tspan>
      </text>
    </g>
    <g id="7" font-weight="700" font-family="sans-serif" stroke-width=".265"><text y="122.868" x="82.165"
        style="line-height:1.25;-inkscape-font-specification:'sans-serif Bold'" font-size="8.467"
        transform="translate(17.105 -16.57)">
        <tspan style="-inkscape-font-specification:'Subjectivity Bold'" y="123.926" x="82.165">FRAGO
        </tspan>
      </text><text style="line-height:1.25;-inkscape-font-specification:'sans-serif Bold'" x="29.084" y="107.386"
        font-size="8.467" fill="#f0f0f0" transform="translate(17.105 -16.57)" /><text y="80.226" x="100.582"
        style="line-height:1.25;-inkscape-font-specification:'sans-serif Bold'" font-size="8.467" fill="#f0f0f0"
        transform="translate(17.105 -16.57)">
        <tspan style="-inkscape-font-specification:'Subjectivity Bold'" y="80.226" x="100.582">
          Versionning</tspan>
      </text><text style="line-height:1.25;-inkscape-font-specification:'sans-serif Bold'" x="77.039" y="156.705"
        font-size="8.467" fill="#f0f0f0" transform="translate(17.105 -16.57)">
        <tspan x="77.039" y="156.705" style="-inkscape-font-specification:'Subjectivity Bold'">Open
          Source</tspan>
      </text><text style="line-height:1.25;-inkscape-font-specification:'sans-serif Bold'" x="28.996" y="101.367"
        font-size="7.761" fill="#f0f0f0" transform="translate(17.105 -16.57)">
        <tspan x="28.996" y="101.367" style="-inkscape-font-specification:'Subjectivity Bold'">Multi-
        </tspan>
        <tspan x="28.996" y="112.266" style="-inkscape-font-specification:'Subjectivity Bold'">
          Plateforme</tspan>
      </text>
    </g>
  </svg>
